<svg xmlns="http://www.w3.org/2000/svg" width="1200" height="420" viewBox="0 0 1200 420">
  <rect width="1200" height="420" fill="#1a5e2a"/>
  <!-- Texto principal -->
  <text x="600" y="150" font-family="Arial, sans-serif" font-size="48" font-weight="bold"
        fill="#ffffff" text-anchor="middle">Produtos para Cães, Gatos e Aves</text>
  <!-- Silhueta cachorro -->
  <g fill="#ffffff" transform="translate(350, 210)">
    <ellipse cx="60" cy="60" rx="55" ry="40"/>
    <circle cx="110" cy="30" r="28"/>
    <ellipse cx="130" cy="15" rx="8" ry="14" transform="rotate(15,130,15)"/>
    <ellipse cx="155" cy="10" rx="8" ry="14" transform="rotate(-10,155,10)"/>
    <rect x="20" y="90" width="15" height="40" rx="6"/>
    <rect x="45" y="90" width="15" height="40" rx="6"/>
    <rect x="70" y="90" width="15" height="40" rx="6"/>
    <rect x="95" y="90" width="15" height="40" rx="6"/>
    <ellipse cx="10" cy="70" rx="6" ry="20" transform="rotate(-20,10,70)"/>
  </g>
  <!-- Silhueta gato -->
  <g fill="#ffffff" transform="translate(530, 210)">
    <ellipse cx="60" cy="65" rx="50" ry="38"/>
    <circle cx="60" cy="32" r="26"/>
    <polygon points="38,12 30,−8 48,5"/>
    <polygon points="82,12 90,−8 72,5"/>
    <rect x="20" y="93" width="14" height="38" rx="6"/>
    <rect x="44" y="93" width="14" height="38" rx="6"/>
    <rect x="68" y="93" width="14" height="38" rx="6"/>
    <ellipse cx="90" cy="78" rx="6" ry="22" transform="rotate(20,90,78)"/>
  </g>
  <!-- Silhueta pássaro -->
  <g fill="#ffffff" transform="translate(720, 220)">
    <ellipse cx="50" cy="55" rx="40" ry="30"/>
    <circle cx="80" cy="28" r="22"/>
    <polygon points="95,28 115,22 95,34"/>
    <path d="M10,45 Q-20,20 -10,10 Q0,5 10,25" fill="#ffffff"/>
    <rect x="35" y="78" width="10" height="30" rx="4"/>
    <rect x="55" y="78" width="10" height="30" rx="4"/>
  </g>
</svg>
