<svg xmlns="http://www.w3.org/2000/svg" viewBox="0 0 200 80" width="200" height="80">
  <!-- Fundo -->
  <rect width="200" height="80" rx="10" fill="#4a90d9"/>

  <!-- Patinha esquerda (cachorro Snow) -->
  <ellipse cx="38" cy="48" rx="10" ry="12" fill="#ffffff"/>
  <ellipse cx="28" cy="38" rx="6" ry="7" fill="#ffffff"/>
  <ellipse cx="48" cy="38" rx="6" ry="7" fill="#ffffff"/>
  <ellipse cx="38" cy="35" rx="7" ry="8" fill="#ffffff"/>
  <!-- dedos -->
  <ellipse cx="32" cy="52" rx="4" ry="4" fill="#ffffff"/>
  <ellipse cx="38" cy="55" rx="4" ry="4" fill="#ffffff"/>
  <ellipse cx="44" cy="52" rx="4" ry="4" fill="#ffffff"/>

  <!-- Patinha direita (gato Zoey) -->
  <ellipse cx="162" cy="48" rx="10" ry="12" fill="#f5c842"/>
  <ellipse cx="152" cy="38" rx="6" ry="7" fill="#f5c842"/>
  <ellipse cx="172" cy="38" rx="6" ry="7" fill="#f5c842"/>
  <ellipse cx="162" cy="35" rx="7" ry="8" fill="#f5c842"/>
  <!-- dedos -->
  <ellipse cx="156" cy="52" rx="4" ry="4" fill="#f5c842"/>
  <ellipse cx="162" cy="55" rx="4" ry="4" fill="#f5c842"/>
  <ellipse cx="168" cy="52" rx="4" ry="4" fill="#f5c842"/>

  <!-- Texto Snow & Zoey -->
  <text x="100" y="32" font-family="Arial, sans-serif" font-size="13" font-weight="bold" fill="#ffffff" text-anchor="middle">Snow &amp; Zoey</text>
  <text x="100" y="50" font-family="Arial, sans-serif" font-size="10" fill="#d4eaff" text-anchor="middle">Petshop</text>
  <text x="100" y="66" font-family="Arial, sans-serif" font-size="7" fill="#b8d8f8" text-anchor="middle">cuidando com amor</text>
</svg>
